<mxfile host="app.diagrams.net" modified="2024-03-04T16:26:41.695Z" agent="Mozilla/5.0 (Windows NT 10.0; Win64; x64) AppleWebKit/537.36 (KHTML, like Gecko) Chrome/122.0.0.0 Safari/537.36" version="23.1.5" etag="0qwf9HZYmpWKWA7L3_j3" type="github">
  <diagram name="Page-1" id="uem4HRmjrSjwj4nGRmG3">
    <mxGraphModel>
      <root>
        <mxCell id="0" />
        <mxCell id="1" parent="0" />
      </root>
    </mxGraphModel>
  </diagram>
</mxfile>
